# xmcd
# Copyright (C) 1995-1998 Ti Kan
#
# Track frame offsets:
#       150
#       12139
#       25137
#       36091
#       46158
#       57875
#       69680
#       79426
#       92277
#       103645
#       116398
#       126855
#       136708
#       146712
#       156798
#       171330
#       182710
#       194186
#       211239
#       223110
#       234721
#       244964
#       257104
#       267890
#       279134
#       288919
#
# Disc length: 4004 seconds
#
# Revision: 0
# Processed by: cddbd v1.5.2PL0 Copyright (c) Steve Scherf et al.
# Submitted via: CD-Import v1.0
#
DISCID=7c0fa21a
DTITLE=Various Artist - Soul
DYEAR=1900
DGENRE=
TTITLE0=Betty Harris - Mean Man
TTITLE1=Billy Butler - I'll Bet You
TTITLE2=Bobby Wells - Let's Copp A Groove
TTITLE3=Bohanna - Nighttime Lady
TTITLE4=Brice Coefeld - Cha-Cha Twist
TTITLE5=Carstairs - He Who Picks A Rose
TTITLE6=Davis Jones and The Fenders - Boss With The Hot Sauce
TTITLE7=Don Gardner - My Baby Likes To Boogaloo
TTITLE8=Enchantments - I'm In Love With Your Daughter
TTITLE9=Harvey Scales - Get Down
TTITLE10=Howard Peters - Tighten Up The Slack
TTITLE11=International Kansas City Playboys - Everybody's Going Wild
TTITLE12=Irene and The Scotts - I'm Stuck On My Baby
TTITLE13=Irma Thomas - Hittin' On Nothin'
TTITLE14=James Knight and The Butlers - Save Me
TTITLE15=Jimmy Norman - I'm Leaving
TTITLE16=Jimmy Robbins - I Can't Please You
TTITLE17=Johnny C and The Rocking Champs - Groove Time
TTITLE18=Las Gardenias - What's The Matter With Me
TTITLE19=Little Hank - I Got The Feeling
TTITLE20=Marvin Smith - Have More Time
TTITLE21=Ray Charles - I Don't Need No Doctor
TTITLE22=Sugar Pie Desanto - In The Basement
TTITLE23=Stu Gardner - How Do You Feel
TTITLE24=Sir Guy - The Frog
TTITLE25=Gloria Jones - Heartbeat
EXTD=
EXTT0=
EXTT1=
EXTT2=
EXTT3=
EXTT4=
EXTT5=
EXTT6=
EXTT7=
EXTT8=
EXTT9=
EXTT10=
EXTT11=
EXTT12=
EXTT13=
EXTT14=
EXTT15=
EXTT16=
EXTT17=
EXTT18=
EXTT19=
EXTT20=
EXTT21=
EXTT22=
EXTT23=
EXTT24=
EXTT25=
PLAYORDER=
